# xmcd
#
# Track frame offsets: 
#        150
#        22071
#        43148
#        65069
#
# Disc length: 1146 seconds
#
# Revision: 1
# Processed by: cddbd v1.5.2PL0 Copyright (c) Steve Scherf et al.
# Submitted via: ExactAudioCopy v1.0b6
#
DISCID=37047804
DTITLE=?????? - ???????
DYEAR=1997
DGENRE=J-POP
TTITLE0=???????
TTITLE1=???
TTITLE2=????????????
TTITLE3=????????
EXTD=YEAR: 1997
EXTT0=
EXTT1=
EXTT2=
EXTT3=
PLAYORDER=
